<?xml version="1.0" encoding="UTF-8" standalone="no"?>
<!-- Created with Inkscape (http://www.inkscape.org/) -->

<svg
   width="1280"
   height="640"
   viewBox="0 0 338.66665 169.33333"
   version="1.1"
   id="svg146"
   inkscape:version="1.1 (c68e22c387, 2021-05-23)"
   sodipodi:docname="blog.svg"
   xmlns:inkscape="http://www.inkscape.org/namespaces/inkscape"
   xmlns:sodipodi="http://sodipodi.sourceforge.net/DTD/sodipodi-0.dtd"
   xmlns:xlink="http://www.w3.org/1999/xlink"
   xmlns="http://www.w3.org/2000/svg"
   xmlns:svg="http://www.w3.org/2000/svg">
  <sodipodi:namedview
     id="namedview148"
     pagecolor="#ffffff"
     bordercolor="#666666"
     borderopacity="1.0"
     inkscape:pageshadow="2"
     inkscape:pageopacity="0.0"
     inkscape:pagecheckerboard="0"
     inkscape:document-units="mm"
     showgrid="true"
     width="512mm"
     units="px"
     inkscape:snap-bbox="true"
     inkscape:snap-bbox-midpoints="true"
     inkscape:snap-bbox-edge-midpoints="true"
     inkscape:bbox-nodes="true"
     inkscape:bbox-paths="true"
     inkscape:object-paths="false"
     inkscape:zoom="0.70710678"
     inkscape:cx="572.04938"
     inkscape:cy="330.21887"
     inkscape:window-width="1366"
     inkscape:window-height="705"
     inkscape:window-x="-8"
     inkscape:window-y="-8"
     inkscape:window-maximized="1"
     inkscape:current-layer="layer1">
    <inkscape:grid
       type="xygrid"
       id="grid18009" />
  </sodipodi:namedview>
  <defs
     id="defs143" />
  <g
     inkscape:label="Layer 1"
     inkscape:groupmode="layer"
     id="layer1"
     style="display:inline">
    <rect
       width="338.66666"
       height="169.33333"
       fill="#ffffff"
       stroke-width="0.671415"
       id="rect36"
       x="0"
       y="0"
       style="display:inline" />
    <rect
       style="fill:#000000;fill-opacity:1;stroke-width:0.264583"
       id="rect51714"
       width="3.96875"
       height="15.875"
       x="50.270832"
       y="35.71875" />
    <rect
       style="fill:#000000;fill-opacity:1;stroke-width:0.264583"
       id="rect51716"
       width="15.875"
       height="3.96875"
       x="54.239582"
       y="31.75" />
    <rect
       style="fill:#000000;fill-opacity:1;stroke-width:0.264583"
       id="rect51718"
       width="3.96875"
       height="15.875"
       x="70.114586"
       y="35.71875" />
    <rect
       style="fill:#000000;fill-opacity:1;stroke-width:0.264583"
       id="rect51720"
       width="15.875"
       height="3.96875"
       x="54.239582"
       y="51.59375" />
    <rect
       style="fill:#000000;fill-opacity:1;stroke-width:0.264583"
       id="rect51722"
       width="3.96875"
       height="1.984375"
       x="62.177082"
       y="49.741665" />
  </g>
  <g
     inkscape:groupmode="layer"
     id="layer3"
     inkscape:label="Layer 3"
     style="display:inline">
    <path
       id="rect27886"
       style="fill:#000000;fill-opacity:1;stroke-width:0.999999"
       d="M 205 120 L 205 135 L 265 135 L 265 120 L 205 120 z M 265 135 L 265 195 L 280 195 L 280 135 L 265 135 z M 265 195 L 250 195 L 250 187.5 L 235 187.5 L 235 195 L 205 195 L 205 210 L 265 210 L 280 210 L 280 202.5 L 265 202.5 L 265 195 z M 205 195 L 205 135 L 190 135 L 190 195 L 205 195 z M 505 120 L 505 210 L 520 210 L 520 150 L 535 150 L 535 135 L 520 135 L 520 120 L 505 120 z M 535 150 L 535 165 L 550 165 L 550 150 L 535 150 z M 550 150 L 565 150 L 565 210 L 580 210 L 580 120 L 565 120 L 565 135 L 550 135 L 550 150 z M 602.5 120 L 602.5 135 L 655 135 L 655 150 L 670 150 L 670 135 L 662.5 135 L 662.5 120 L 602.5 120 z M 602.5 135 L 587.5 135 L 587.5 195 L 602.5 195 L 602.5 135 z M 602.5 195 L 602.5 210 L 662.5 210 L 662.5 195 L 670 195 L 670 180 L 655 180 L 655 195 L 602.5 195 z M 677.5 120 L 677.5 210 L 692.5 210 L 692.5 165 L 737.5 165 L 737.5 150 L 692.5 150 L 692.5 135 L 737.5 135 L 737.5 120 L 692.5 120 L 677.5 120 z M 737.5 135 L 737.5 150 L 752.5 150 L 752.5 135 L 737.5 135 z M 775 120 L 775 135 L 827.5 135 L 827.5 150 L 842.5 150 L 842.5 135 L 835 135 L 835 120 L 775 120 z M 775 135 L 760 135 L 760 195 L 775 195 L 775 135 z M 775 195 L 775 210 L 835 210 L 835 195 L 842.5 195 L 842.5 180 L 827.5 180 L 827.5 195 L 775 195 z M 850 120 L 850 150 L 865 150 L 865 120 L 850 120 z M 887.5 135 L 887.5 150 L 925 150 L 925 135 L 887.5 135 z M 887.5 150 L 872.5 150 L 872.5 165 L 887.5 165 L 887.5 150 z M 887.5 165 L 887.5 180 L 910 180 L 910 165 L 887.5 165 z M 910 180 L 910 195 L 925 195 L 925 180 L 910 180 z M 910 195 L 872.5 195 L 872.5 210 L 910 210 L 910 195 z M 287.5 142.5 L 287.5 195 L 302.5 195 L 302.5 142.5 L 287.5 142.5 z M 302.5 195 L 302.5 210 L 332.5 210 L 347.5 210 L 347.5 142.5 L 332.5 142.5 L 332.5 195 L 302.5 195 z M 355 142.5 L 355 157.5 L 407.5 157.5 L 407.5 142.5 L 355 142.5 z M 407.5 157.5 L 407.5 165 L 370 165 L 370 180 L 407.5 180 L 407.5 195 L 370 195 L 370 210 L 422.5 210 L 422.5 195 L 422.5 157.5 L 407.5 157.5 z M 370 195 L 370 180 L 355 180 L 355 195 L 370 195 z M 430 142.5 L 430 210 L 445 210 L 445 157.5 L 482.5 157.5 L 482.5 142.5 L 445 142.5 L 430 142.5 z M 482.5 157.5 L 482.5 210 L 497.5 210 L 497.5 157.5 L 482.5 157.5 z M 190 340 L 190 520 L 220 520 L 310 520 L 310 490 L 220 490 L 220 445 L 310 445 L 310 415 L 220 415 L 220 370 L 310 370 L 310 340 L 220 340 L 190 340 z M 310 370 L 310 415 L 340 415 L 340 370 L 310 370 z M 310 445 L 310 490 L 340 490 L 340 445 L 310 445 z M 430 340 L 430 520 L 460 520 L 565 520 L 565 490 L 460 490 L 460 340 L 430 340 z M 955 340 L 955 370 L 1090 370 L 1090 340 L 955 340 z M 955 370 L 925 370 L 925 490 L 955 490 L 955 370 z M 955 490 L 955 520 L 1060 520 L 1060 490 L 955 490 z M 1060 490 L 1090 490 L 1090 430 L 1090 400 L 1030 400 L 1030 430 L 1060 430 L 1060 490 z "
       transform="scale(0.26458333)" />
    <path
       d="m 194.68472,100.39324 v 2.42987 h -2.42987 v 2.42987 h -2.42986 v 2.42987 h -2.42988 v 2.42987 h -2.42987 v 2.42987 h -2.42986 v 7.2896 h 2.42986 v 2.42987 h 2.42987 v 2.42987 h 4.85974 v 2.42986 h 9.71947 v -2.42986 h 4.85973 v -2.42987 h 2.42987 v -2.42987 h 2.42987 v -7.2896 h -2.42987 v -2.42987 h -2.42987 v -2.42987 h -2.42986 v -2.42987 h -2.42987 v -2.42987 h -2.42987 v -2.42987 z"
       fill="#3b0000"
       stroke-width="0.217716"
       id="path38"
       style="display:inline" />
    <g
       transform="matrix(0.12149285,0,0,0.12149306,182.53563,99.17841)"
       id="g52"
       style="display:inline">
      <path
         d="m 100,10 v 20 h 40 V 10 Z m 40,20 v 20 h 20 V 30 Z m 20,20 v 20 h 20 V 50 Z m 20,20 v 20 h 20 V 70 Z m 20,20 v 20 h 20 V 90 Z m 20,20 v 60 h 20 v -60 z m 0,60 h -20 v 20 h 20 z m -20,20 h -40 v 20 h 40 z m -40,20 H 80 v 20 h 80 z m -80,0 V 190 H 40 v 20 z M 40,190 V 170 H 20 v 20 z M 20,170 V 110 H 0 v 60 z m 0,-60 H 40 V 90 H 20 Z M 40,90 H 60 V 70 H 40 Z M 60,70 H 80 V 50 H 60 Z M 80,50 h 20 V 30 H 80 Z"
         fill="#2d0000"
         id="path40" />
      <path
         d="M 100,30 V 70 H 60 V 90 H 40 v 40 h 20 v 20 h 20 v 40 h 40 v -20 h 20 v -40 h -20 v -20 h 20 V 70 H 120 V 50 h 20 V 30 Z M 60,150 H 40 v 20 h 20 z m -20,0 V 130 H 20 v 20 z m 40,-40 h 20 v 20 H 80 Z"
         fill="#720000"
         id="path42" />
      <path
         d="M 140,50 V 190 H 80 v 20 h 80 v -20 h 20 v -20 h 40 V 110 H 160 V 90 h 20 V 70 H 160 V 50 Z M 80,190 V 170 H 40 v 20 z M 40,170 V 150 H 20 v 20 z m 140,-40 h 20 v 20 h -20 z"
         fill="#490000"
         id="path44" />
      <path
         d="m 80,50 v 20 h 20 V 50 Z m 100,40 v 20 h 20 V 90 Z M 20,110 v 20 h 20 v -20 z m 100,0 v 20 h 20 v -20 z m -60,40 v 20 h 20 v -20 z m 120,20 v 20 h 20 v -20 z"
         fill="#ff0000"
         id="path46" />
      <path
         d="m 160,90 v 20 h 20 V 90 Z m 20,40 v 20 h 20 v -20 z m -60,40 v 20 h 20 v -20 z"
         fill="#360000"
         id="path48" />
      <path
         d="m 120,50 v 20 h 20 V 50 Z m -40,60 v 20 h 20 v -20 z m -40,20 v 20 h 20 v -20 z"
         fill="#540000"
         id="path50" />
    </g>
    <path
       id="llv"
       d="m 210.72185,130.88792 h 0.91118 c 1.09344,0 1.82239,0 2.55134,-0.18224 0.72896,-0.18224 1.45791,-0.72895 2.00463,-1.45791 0.54671,-0.72895 0.72895,-1.45791 0.91119,-2.36907 0.18224,-0.91119 0.18224,-2.55133 0.18224,-4.7382 0,-1.64016 0,-2.7336 0.18223,-3.64481 0.18224,-0.91119 0.54672,-1.82237 1.09344,-2.36911 0.54671,-0.54671 1.27566,-0.91118 2.3691,-0.91118 v -2.91582 c -1.09344,0 -1.82239,-0.36448 -2.3691,-0.91119 -0.54672,-0.54672 -0.9112,-1.45791 -1.09344,-2.36911 -0.18223,-0.91119 -0.18223,-2.00463 -0.18223,-3.64476 0,-2.18687 0,-3.82702 -0.18224,-4.73821 -0.18224,-0.911197 -0.36448,-1.640125 -0.91119,-2.369029 -0.54672,-0.728931 -1.27567,-1.275641 -2.00463,-1.457881 -0.72895,-0.18224 -1.4579,-0.18224 -2.55134,-0.18224 h -0.91118 v 2.733488 h 0.54671 c 1.27567,0 2.00462,0.182245 2.3691,0.546731 0.54671,0.546711 0.72896,0.728931 0.72896,1.275661 v 4.55598 c 0,2.73357 0.36447,4.55595 0.91118,5.64939 0.54672,1.09341 1.64015,1.82238 2.73358,2.3691 -1.09343,0.54671 -2.18686,1.27567 -2.73358,2.36909 -0.54671,1.09344 -0.91118,2.91582 -0.91118,5.64943 v 4.55597 c 0,0.54671 -0.18225,0.72895 -0.72896,1.27564 -0.36448,0.36448 -1.09343,0.54671 -2.3691,0.54671 h -0.54671 z"
       fill="#d60000"
       stroke-width="0.182238"
       style="display:inline" />
    <use
       transform="matrix(-1,0,0,0.99999995,394.2294,1.0915343e-6)"
       width="260"
       height="1030"
       xlink:href="#llv"
       id="use55"
       x="0"
       y="0"
       style="display:inline" />
  </g>
</svg>
