<?xml version="1.0" encoding="UTF-8"?>
<!-- Created with Inkscape (http://www.inkscape.org/) -->
<svg width="1024" height="1024" version="1.1" viewBox="0 0 270.93 270.93" xmlns="http://www.w3.org/2000/svg" xmlns:xlink="http://www.w3.org/1999/xlink">
    <g>
        <rect width="270.93" height="270.93" fill="#fff" stroke-width=".75962"/>
        <path d="m20.373 82.55v3.9688h15.875v-3.9688zm15.875 3.9688v15.875h3.9688v-15.875zm0 15.875h-3.9688v-1.9844h-3.9688v1.9844h-7.9375v3.9688h19.844v-1.9844h-3.9688zm-15.875 0v-15.875h-3.9688v15.875zm79.375-19.844v23.812h3.9687v-15.875h3.9688v-3.9688h-3.9688v-3.9688zm7.9375 7.9375v3.9688h3.9688v-3.9688zm3.9688 0h3.9688v15.875h3.9688v-23.812h-3.9688v3.9688h-3.9688zm13.891-7.9375v3.9688h13.891v3.9688h3.9688v-3.9688h-1.9844v-3.9688zm0 3.9688h-3.9688v15.875h3.9688zm0 15.875v3.9688h15.875v-3.9688h1.9844v-3.9687h-3.9688v3.9687zm19.844-19.844v23.812h3.9688v-11.906h11.906v-3.9688h-11.906v-3.9688h11.906v-3.9688h-11.906zm15.875 3.9688v3.9688h3.9688v-3.9688zm9.9219-3.9688v3.9688h13.891v3.9688h3.9688v-3.9688h-1.9844v-3.9688zm0 3.9688h-3.9688v15.875h3.9688zm0 15.875v3.9688h15.875v-3.9688h1.9844v-3.9687h-3.9688v3.9687zm19.844-19.844v7.9375h3.9688v-7.9375zm9.9219 3.9688v3.9688h9.9219v-3.9688zm0 3.9688h-3.9688v3.9688h3.9688zm0 3.9688v3.9688h5.9531v-3.9688zm5.9531 3.9688v3.9687h3.9688v-3.9687zm0 3.9687h-9.9219v3.9688h9.9219zm-164.7-13.891v13.891h3.9688v-13.891zm3.9688 13.891v3.9688h11.906v-17.859h-3.9688v13.891zm13.891-13.891v3.9688h13.891v-3.9688zm13.891 3.9688v1.9844h-9.9219v3.9688h9.9219v3.9687h-9.9219v3.9688h13.891v-13.891zm-9.9219 9.9219v-3.9687h-3.9688v3.9687zm15.875-13.891v17.859h3.9688v-13.891h9.9219v-3.9688h-9.9219zm13.891 3.9688v13.891h3.9688v-13.891zm-77.391 48.286v47.625h31.75v-7.9375h-23.812v-11.906h23.812v-7.9375h-23.812v-11.906h23.812v-7.9375h-23.812zm31.75 7.9375v11.906h7.9375v-11.906zm0 19.844v11.906h7.9375v-11.906zm31.75-27.781v47.625h35.719v-7.9375h-27.781v-39.688zm138.91 0v7.9375h35.719v-7.9375zm0 7.9375h-7.9375v31.75h7.9375zm0 31.75v7.9375h27.781v-7.9375zm27.781 0h7.9375v-23.812h-15.875v7.9375h7.9375z" stroke-width=".26458"/>
        <path d="m160.82 151.19v2.4299h-2.4299v2.4299h-2.4299v2.4299h-2.4299v2.4299h-2.4299v2.4299h-2.4299v7.2896h2.4299v2.4299h2.4299v2.4299h4.8597v2.4299h9.7195v-2.4299h4.8597v-2.4299h2.4299v-2.4299h2.4299v-7.2896h-2.4299v-2.4299h-2.4299v-2.4299h-2.4299v-2.4299h-2.4299v-2.4299h-2.4299v-2.4299z" fill="#3b0000" stroke-width=".21772"/>
        <g transform="matrix(.12149 0 0 .12149 148.67 149.98)">
            <path d="m100 10v20h40v-20zm40 20v20h20v-20zm20 20v20h20v-20zm20 20v20h20v-20zm20 20v20h20v-20zm20 20v60h20v-60zm0 60h-20v20h20zm-20 20h-40v20h40zm-40 20h-80v20h80zm-80 0v-20h-40v20zm-40-20v-20h-20v20zm-20-20v-60h-20v60zm0-60h20v-20h-20zm20-20h20v-20h-20zm20-20h20v-20h-20zm20-20h20v-20h-20z" fill="#2d0000"/>
            <path d="m100 30v40h-40v20h-20v40h20v20h20v40h40v-20h20v-40h-20v-20h20v-40h-20v-20h20v-20zm-40 120h-20v20h20zm-20 0v-20h-20v20zm40-40h20v20h-20z" fill="#720000"/>
            <path d="m140 50v140h-60v20h80v-20h20v-20h40v-60h-60v-20h20v-20h-20v-20zm-60 140v-20h-40v20zm-40-20v-20h-20v20zm140-40h20v20h-20z" fill="#490000"/>
            <path d="m80 50v20h20v-20zm100 40v20h20v-20zm-160 20v20h20v-20zm100 0v20h20v-20zm-60 40v20h20v-20zm120 20v20h20v-20z" fill="#f00"/>
            <path d="m160 90v20h20v-20zm20 40v20h20v-20zm-60 40v20h20v-20z" fill="#360000"/>
            <path d="m120 50v20h20v-20zm-40 60v20h20v-20zm-40 20v20h20v-20z" fill="#540000"/>
        </g>
        <path id="llv" d="m176.86 181.69h0.91118c1.0934 0 1.8224 0 2.5513-0.18224 0.72896-0.18224 1.4579-0.72895 2.0046-1.4579 0.54671-0.72895 0.72895-1.4579 0.91119-2.3691 0.18224-0.91119 0.18224-2.5513 0.18224-4.7382 0-1.6402 0-2.7336 0.18223-3.6448 0.18224-0.91119 0.54672-1.8224 1.0934-2.3691 0.54671-0.54671 1.2757-0.91118 2.3691-0.91118v-2.9158c-1.0934 0-1.8224-0.36448-2.3691-0.91119-0.54672-0.54672-0.9112-1.4579-1.0934-2.3691-0.18223-0.91119-0.18223-2.0046-0.18223-3.6448 0-2.1869 0-3.827-0.18224-4.7382-0.18224-0.9112-0.36448-1.6401-0.91119-2.369-0.54672-0.72893-1.2757-1.2756-2.0046-1.4579-0.72895-0.18224-1.4579-0.18224-2.5513-0.18224h-0.91118v2.7335h0.54671c1.2757 0 2.0046 0.18224 2.3691 0.54673 0.54671 0.54671 0.72896 0.72893 0.72896 1.2757v4.556c0 2.7336 0.36447 4.556 0.91118 5.6494 0.54672 1.0934 1.6402 1.8224 2.7336 2.3691-1.0934 0.54671-2.1869 1.2757-2.7336 2.3691-0.54671 1.0934-0.91118 2.9158-0.91118 5.6494v4.556c0 0.54671-0.18225 0.72895-0.72896 1.2756-0.36448 0.36448-1.0934 0.54671-2.3691 0.54671h-0.54671z" fill="#d60000" stroke-width=".18224"/>
        <use transform="matrix(-1 0 0 1 326.5 3.8733e-6)" width="260" height="1030" xlink:href="#llv"/>
    </g>
</svg>
